<?xml version="1.0" encoding="UTF-8"?>
<svg id="Layer_1" data-name="Layer 1" xmlns="http://www.w3.org/2000/svg" viewBox="0 0 648 648">
  <defs>
    <style>
      .cls-1 {
        fill: #fff;
      }

      .cls-2 {
        fill: #0a4e80;
      }
    </style>
  </defs>
  <rect class="cls-2" x="0" width="648" height="648"/>
  <g>
    <g>
      <g>
        <rect class="cls-1" x="325.24" y="264.49" width="13.14" height="13.14"/>
        <rect class="cls-1" x="325.24" y="279.99" width="13.14" height="13.14"/>
      </g>
      <g>
        <rect class="cls-1" x="309.62" y="264.49" width="13.14" height="13.14" transform="translate(632.38 542.12) rotate(-180)"/>
        <rect class="cls-1" x="309.62" y="279.99" width="13.14" height="13.14" transform="translate(632.38 573.12) rotate(-180)"/>
      </g>
    </g>
    <polygon class="cls-1" points="468.6 315.45 438.79 315.45 437.48 313.53 432.07 305.79 432.07 305.76 332.48 162.91 328.12 156.67 324 150.73 319.88 156.67 315.52 162.91 215.93 305.76 215.93 305.79 210.52 313.53 209.21 315.45 179.4 315.45 252.66 210.21 324 107.88 395.34 210.21 468.6 315.45"/>
    <polygon class="cls-1" points="430.57 315.46 400.79 315.46 380.37 286.08 324 205.36 267.63 286.08 247.21 315.46 217.43 315.46 324 162.55 430.57 315.46"/>
    <g>
      <path class="cls-1" d="M267.27,354.24v65.41c0,5.3-.52,10.45-1.54,15.45-1.03,5-2.77,9.42-5.24,13.28-2.47,3.85-5.72,6.98-9.76,9.39-4.03,2.41-9,3.62-14.9,3.62s-10.66-1.18-14.64-3.53c-3.97-2.35-7.2-5.45-9.67-9.3-2.47-3.86-4.21-8.28-5.23-13.28-1.03-5-1.54-10.21-1.54-15.63v-65.41h-24.93v65.41c0,8.31.99,16.32,2.98,24.03,1.98,7.71,5.21,14.48,9.66,20.33,4.46,5.84,10.27,10.54,17.44,14.09,7.16,3.55,15.87,5.33,26.11,5.33s18.36-1.69,25.47-5.06c7.11-3.37,12.92-7.95,17.44-13.73,4.52-5.78,7.83-12.53,9.94-20.24,2.1-7.7,3.16-15.96,3.16-24.75v-65.41h-24.75Z"/>
      <path class="cls-1" d="M433.31,354.42v128.11h24.93v-128.11h-24.93Z"/>
      <path class="cls-1" d="M571.17,354.42v84.02l-66.85-84.2h-19.33v128.29h24.93v-82.22l65.95,82.22h20.24v-128.11h-24.94Z"/>
      <polygon class="cls-1" points="379.07 415.24 378.6 415.93 378.58 415.91 379.07 415.24"/>
      <polygon class="cls-1" points="382.23 371.93 365.49 395.96 371.94 386.68 373.24 384.8 382.23 371.93"/>
      <polygon class="cls-1" points="315.12 370.5 303.69 354.23 330.78 354.23 360.19 396.49 361.02 397.67 347.55 417.03 315.22 370.66 315.12 370.5"/>
      <polygon class="cls-1" points="377.82 417.03 364.31 397.67 365.11 396.51 365.49 395.96 382.23 371.93 394.58 354.23 421.48 354.23 402.6 381.39 379.07 415.24 378.58 415.92 377.82 417.03"/>
      <g>
        <polygon class="cls-1" points="420.2 482.52 408.34 482.52 407.82 481.76 405.66 478.68 405.66 478.67 366.04 421.83 364.3 419.35 362.66 416.98 361.02 419.35 359.29 421.83 319.66 478.67 319.66 478.68 317.51 481.76 316.99 482.52 305.13 482.52 334.28 440.65 362.66 399.93 391.05 440.65 420.2 482.52"/>
        <polygon class="cls-1" points="405.07 482.53 393.22 482.53 385.09 470.84 362.66 438.72 340.23 470.84 332.11 482.53 320.26 482.53 362.66 421.69 405.07 482.53"/>
      </g>
      <path class="cls-1" d="M122.72,354.24h-20.24l-50.59,128.29h26.38l10.39-28.29h47.71l10.38,28.29h26.38l-50.41-128.29ZM112.6,381.16l16.61,48.15h-33.72l17.11-48.15Z"/>
    </g>
    <g>
      <path class="cls-1" d="M224.86,530.19c0,1.5-.31,2.84-.91,4.02-.61,1.18-1.43,2.19-2.46,3-1.03.82-2.24,1.45-3.63,1.88-1.39.44-2.87.65-4.44.65h-17.71v-37.1h19.12c1.29,0,2.46.28,3.5.84,1.04.56,1.93,1.28,2.66,2.17.73.89,1.3,1.9,1.7,3.03.4,1.13.6,2.27.6,3.42,0,1.81-.46,3.51-1.38,5.09-.92,1.58-2.24,2.76-3.94,3.53,2.12.63,3.81,1.77,5.04,3.42,1.24,1.65,1.85,3.67,1.85,6.04ZM201.55,507.72v10.92h10.76c.73,0,1.4-.14,2.01-.42.61-.28,1.15-.65,1.62-1.12.47-.47.84-1.04,1.1-1.7.26-.66.39-1.39.39-2.19,0-1.6-.45-2.92-1.36-3.95-.91-1.03-2.06-1.54-3.45-1.54h-11.08ZM218.85,529.09c0-.77-.13-1.5-.39-2.19-.26-.7-.61-1.31-1.04-1.83-.44-.52-.97-.94-1.59-1.25-.63-.31-1.31-.47-2.04-.47h-12.23v11.34h11.86c.77,0,1.48-.15,2.14-.44.66-.29,1.24-.7,1.72-1.2.49-.5.87-1.1,1.15-1.78.28-.68.42-1.4.42-2.17Z"/>
      <path class="cls-1" d="M247.74,534.74c1.95,0,3.57-.38,4.86-1.15,1.29-.77,2.33-1.77,3.11-3s1.34-2.65,1.67-4.23c.33-1.58.5-3.21.5-4.89v-18.81h5.9v18.81c0,2.54-.3,4.94-.89,7.18-.59,2.25-1.53,4.22-2.82,5.9-1.29,1.69-2.95,3.02-4.99,4-2.04.98-4.49,1.46-7.34,1.46s-5.46-.51-7.5-1.54c-2.04-1.03-3.68-2.4-4.94-4.13-1.25-1.72-2.16-3.7-2.72-5.93-.56-2.23-.84-4.55-.84-6.95v-18.81h5.85v18.81c0,1.71.16,3.35.5,4.94.33,1.58.89,3,1.67,4.23.78,1.24,1.83,2.23,3.13,2.98,1.31.75,2.92,1.12,4.83,1.12Z"/>
      <path class="cls-1" d="M272.82,539.75v-37.05h5.85v37.05h-5.85Z"/>
      <path class="cls-1" d="M288.34,539.75v-37.1h5.85v31.92h19.91v5.17h-25.76Z"/>
      <path class="cls-1" d="M320.47,539.75v-37.1h13.17c3,0,5.62.49,7.86,1.46,2.25.98,4.13,2.3,5.64,3.97s2.66,3.63,3.42,5.88c.77,2.25,1.15,4.64,1.15,7.18,0,2.82-.43,5.37-1.28,7.66-.85,2.28-2.06,4.23-3.63,5.85-1.57,1.62-3.47,2.87-5.7,3.76-2.23.89-4.72,1.33-7.47,1.33h-13.17ZM345.76,521.15c0-1.95-.27-3.74-.81-5.38-.54-1.64-1.33-3.04-2.38-4.21-1.05-1.17-2.32-2.08-3.81-2.74-1.5-.66-3.21-.99-5.12-.99h-7.31v26.75h7.31c1.95,0,3.68-.34,5.2-1.02,1.52-.68,2.79-1.62,3.81-2.82,1.03-1.2,1.8-2.62,2.33-4.26.52-1.64.78-3.41.78-5.33Z"/>
      <path class="cls-1" d="M384.74,534.58v5.17h-25.45v-37.1h24.98v5.17h-19.12v10.55h16.56v4.86h-16.56v11.34h19.59Z"/>
      <path class="cls-1" d="M392.32,539.75v-37.1h16.15c1.67,0,3.21.35,4.62,1.04,1.41.7,2.62,1.61,3.63,2.74,1.01,1.13,1.8,2.42,2.38,3.87.57,1.45.86,2.92.86,4.42,0,1.25-.17,2.46-.52,3.61-.35,1.15-.84,2.21-1.46,3.19-.63.98-1.39,1.82-2.3,2.53-.91.71-1.9,1.25-2.98,1.59l8.83,14.11h-6.64l-8.15-12.91h-8.57v12.91h-5.85ZM398.17,521.67h10.24c.84,0,1.59-.18,2.27-.55.68-.37,1.26-.87,1.75-1.52.49-.64.87-1.38,1.15-2.22s.42-1.72.42-2.67-.17-1.83-.5-2.66c-.33-.84-.77-1.57-1.31-2.2-.54-.63-1.17-1.12-1.88-1.49-.71-.37-1.45-.55-2.22-.55h-9.93v13.85Z"/>
      <path class="cls-1" d="M450.58,511.38c-.35-.38-.85-.79-1.52-1.23-.66-.44-1.44-.84-2.33-1.23-.89-.38-1.87-.7-2.95-.94-1.08-.24-2.23-.37-3.45-.37-2.3,0-4.04.45-5.23,1.36-1.18.91-1.78,2.18-1.78,3.81,0,.91.19,1.65.57,2.22.38.57.96,1.07,1.72,1.49.77.42,1.72.79,2.87,1.12,1.15.33,2.49.69,4.02,1.07,1.81.49,3.47.99,4.99,1.51,1.52.52,2.8,1.18,3.87,1.96,1.06.78,1.89,1.75,2.48,2.9.59,1.15.89,2.58.89,4.29,0,1.95-.37,3.6-1.1,4.96-.73,1.36-1.72,2.46-2.95,3.32-1.24.85-2.67,1.48-4.31,1.88-1.64.4-3.38.6-5.23.6-2.82,0-5.56-.43-8.2-1.28-2.65-.85-5.03-2.1-7.16-3.74l2.72-5.02c.45.45,1.1.96,1.93,1.51.84.56,1.82,1.07,2.95,1.54,1.13.47,2.38.87,3.74,1.2,1.36.33,2.77.5,4.23.5,2.23,0,3.96-.41,5.2-1.23,1.24-.82,1.85-2.01,1.85-3.58,0-.94-.23-1.72-.68-2.35-.45-.63-1.12-1.17-1.99-1.65-.87-.47-1.93-.89-3.19-1.25-1.25-.37-2.68-.76-4.28-1.18-1.85-.49-3.46-1-4.83-1.54-1.38-.54-2.52-1.19-3.42-1.96-.91-.77-1.59-1.66-2.06-2.69s-.71-2.27-.71-3.74c0-1.81.34-3.42,1.02-4.83s1.62-2.59,2.82-3.55c1.2-.96,2.62-1.68,4.26-2.17,1.64-.49,3.4-.73,5.28-.73,2.58,0,4.92.4,7.03,1.2,2.11.8,3.96,1.79,5.56,2.98l-2.66,4.81Z"/>
    </g>
  </g>
</svg>